<?xml version="1.0" encoding="iso-8859-1"?>
<!-- Uploaded to: SVG Repo, www.svgrepo.com, Generator: SVG Repo Mixer Tools -->
<svg version="1.1" id="Layer_1" xmlns="http://www.w3.org/2000/svg" xmlns:xlink="http://www.w3.org/1999/xlink" 
	 viewBox="0 0 512 512" xml:space="preserve">
<path style="fill:#394B48;" d="M511.766,245.428C506.22,108.948,393.843,0,256,0C114.616,0,0,114.616,0,256
	c0,118.321,80.279,217.876,189.335,247.214L511.766,245.428z"/>
<path style="fill:#263230;" d="M512,256c0-3.543-0.091-7.063-0.235-10.572L330.734,64.397l-121.55-1.102l-47.793,98.096
	L116.87,430.748l72.466,72.466C210.592,508.932,232.937,512,256,512C397.385,512,512,397.385,512,256z"/>
<path style="fill:#616F6D;" d="M361.739,223.969h-33.391V139.13c0-39.893-32.455-72.348-72.348-72.348l-11.13-16.696L256,33.391
	c58.305,0,105.739,47.435,105.739,105.739V223.969z"/>
<path style="fill:#889391;" d="M183.652,219.27h-33.391V139.13c0-58.305,47.435-105.739,105.739-105.739v33.391
	c-39.893,0-72.348,32.455-72.348,72.348V219.27z"/>
<polygon style="fill:#B0B7B6;" points="395.13,430.748 256,430.748 212.527,336.139 256,208.139 395.13,208.139 "/>
<rect x="350.609" y="230.4" style="fill:#9CA5A3;" width="22.261" height="22.261"/>
<rect x="116.87" y="208.139" style="fill:#C3C9C8;" width="139.13" height="222.609"/>
<g>
	<rect x="139.13" y="352.835" style="fill:#B0B7B6;" width="22.261" height="22.261"/>
	<rect x="172.522" y="386.226" style="fill:#B0B7B6;" width="22.261" height="22.261"/>
</g>
<path style="fill:#263230;" d="M256,269.357l-5.565,27.826L256,369.53h11.132v-46.845c9.826-4.294,16.695-14.094,16.695-25.503
	C283.826,281.815,271.368,269.357,256,269.357z"/>
<path style="fill:#394B48;" d="M228.174,297.183c0,11.41,6.87,21.21,16.697,25.505v46.842H256V269.357
	C240.632,269.357,228.174,281.815,228.174,297.183z"/>
</svg>